<?xml version="1.0" encoding="utf-8"?>
<svg version="1.1" xmlns="http://www.w3.org/2000/svg" xmlns:xlink="http://www.w3.org/1999/xlink" x="0px" y="0px"
	 viewBox="0 0 640 640" enable-background="new 0 0 640 640" xml:space="preserve" width="360" height="360">
  <style>
    .line1 {
  stroke-dasharray: 1200;
  animation: dash 4s ease-in-out infinite alternate;
}

@keyframes dash {
  0% { stroke-dashoffset: 1300; }
  15% { stroke-dashoffset:0; }
}
    
.line2 {
  stroke-dasharray: 1200;
  animation: dash2 4s ease-in-out infinite alternate;
}

@keyframes dash2 {
 0% { stroke-dashoffset: 1200; }
 6% { stroke-dashoffset: 1200; }
 20%{ stroke-dashoffset: 0; }
 100% { stroke-dashoffset: 0; }
}
    
    .line3 {
  stroke-dasharray: 1200;
  animation: dash3 4s ease-in-out infinite alternate;
}

@keyframes dash3 {
  0% {stroke-dashoffset: 1200;}
  15% {stroke-dashoffset: 1200;}
  25% {stroke-dashoffset: 0;}
}
  </style>
		<defs>
			<path id="SVGID_1_" d="M264.5,342.1c10-18.6,34.9-36.7,51.9-26.6c1.1,0.6,15.3,7.1,17.3,16.7c7.5,16.2,17.3,28.5,29.4,36.9
				c12.1,8.3,25.6,14.4,40.6,18.1s31.2,5.8,48.8,6.2c17.5,0.4,35.6,0.6,54.4,0.6c2.1-0.4,3-1.6,2.8-3.4c-0.2-1.9,0.9-2.6,3.4-2.2
				c6.2,2.1,11.5,4.6,15.6,7.5c4.2,2.9,8.1,6,11.9,9.4c3.8,3.3,7.4,6.8,10.9,10.3c3.5,3.5,7.6,7.2,12.2,10.9
				c-0.8,19.6-6.6,35.5-17.2,47.8c-10.6,12.3-24.7,22.2-42.2,29.7c-24.2,0.8-45.2,0.2-63.1-1.9c-17.9-2.1-35.6-6.7-53.1-13.8
				c-1.2-0.4-2.4-1.7-3.4-3.8c-1-2.1-2-3.5-2.8-4.4c-3.3-2.1-7.1-2.9-11.2-2.5c-4.2,0.4-7.7,0-10.6-1.2c-3.8-1.7-9.9-5.4-18.4-11.2
				c-8.5-5.8-16.4-11.2-23.4-16.2c-8.8-7.1-17.2-14.1-25.3-20.9s-15.3-14.5-21.6-22.8c-1.2-2.1-3-3.1-5.3-3.1
				C249.7,374.5,254.5,360.7,264.5,342.1z"/>
		</defs>
		<clipPath id="SVGID_2_">
			<use xlink:href="#SVGID_1_"  overflow="visible"/>
		</clipPath>
		<path class="line3" stroke-linecap="round" clip-path="url(#SVGID_2_)" fill="none" stroke="#009EE0" stroke-width="150" stroke-miterlimit="10" d="M250.3,294.9
			c0,0,59.1,149,324.4,172.2"/>
			<defs>
			<path id="SVGID_3_" d="M243.6,254c12.1-12.5,26.2-24.2,42.5-35c16.2-10.8,30.4-21,42.5-30.6c9.6-6.7,18-13,25.3-19.1
				c7.3-6,14.7-11.7,22.2-16.9c7.5-5.2,15.3-10.2,23.4-15c8.1-4.8,16.3-10.1,24.7-15.9c4.2-1.7,7.4-2.1,9.7-1.2
				c2.3,0.8,4.5,1.9,6.6,3.1c0.4-2.9-0.2-4.7-1.9-5.3c-1.7-0.6-2.3-2.6-1.9-5.9c7.1-2.1,13.4-4.6,19.1-7.5
				c5.6-2.9,11.6-5.6,17.8-8.1c4.2,4.6,8.3,9.5,12.5,14.7c4.2,5.2,9.8,8,16.9,8.4c2.5,5.4,5.5,9.5,9.1,12.2
				c3.5,2.7,7.1,5.3,10.6,7.8c3.5,2.5,6.6,5.5,9.1,9.1c2.5,3.5,4,9.1,4.4,16.6c-1.7,3.3-3.7,7-5.9,10.9c-2.3,4-4.3,8.9-5.9,14.7
				c-10,9.2-20.1,17.2-30.3,24.1c-10.2,6.9-20.6,13.4-31.2,19.7s-21.5,12.7-32.5,19.4c-11,6.7-22.2,14.4-33.4,23.1
				c-2.5,3.8-5.6,7.1-9.4,10c-3.8,2.9-7.6,5.7-11.6,8.4c-4,2.7-7.7,5.5-11.2,8.4c-3.5,2.9-6.4,6.5-8.4,10.6c-1.7,0-3.1,0.1-4.4,0.3
				c-1.2,0.2-2.7,0.5-4.4,0.9c-1.7,3.3-4.1,6-7.2,8.1c-3.1,2.1-5.3,4.8-6.6,8.1c0,0-12.4,10-25.9,22.7c-4.9,4.6-7.3,10.5-13.4,14.6
				c-14.8,10.1-27,22.3-35.1,30.8c-14.6,9.2-26.8,20.5-36.6,34.1c-9.8,13.5-19.3,27.3-28.4,41.2c-9.2,14-18.9,27.1-29.1,39.4
				c-10.2,12.3-23,21.8-38.4,28.4c-4.6,0-8.5-0.7-11.9-2.2c-3.3-1.5-6.5-3.3-9.4-5.6c-2.9-2.3-5.8-4.5-8.8-6.6
				c-2.9-2.1-6.2-3.5-10-4.4c0-5.8-1.2-11.3-3.4-16.6c-2.3-5.2-4.6-10-6.9-14.4c-2.3-4.4-4-8.6-5-12.8c-1-4.2,0.1-8.3,3.4-12.5
				c-4.6-3.8-9-6.9-13.1-9.4c2.9-2.9,4.3-5.6,4.1-8.1c-0.2-2.5-0.9-5-2.2-7.5s-2.2-5.1-2.8-7.8c-0.6-2.7,0.1-5.7,2.2-9.1
				c1.7-0.4,2.4-1.2,2.2-2.5c-0.2-1.2,0.3-2.3,1.6-3.1c0.4-1.7,0.7-2.9,0.9-3.8c0.2-0.8-0.5-1.9-2.2-3.1c-0.8-2.9-0.2-4.8,1.9-5.6
				c2.1-0.8,4.2-1.7,6.2-2.5l26.5-13.2l45.6-49.9l63.4-64.9L243.6,254z"/>
		</defs>
		<clipPath id="SVGID_4_">
			<use xlink:href="#SVGID_3_"  overflow="visible"/>
		</clipPath>
		<path class="line2" stroke-linecap="round" clip-path="url(#SVGID_4_)" fill="none" stroke="#009EE0" stroke-width="150" stroke-miterlimit="10" d="M92.2,546.8
			c121.4-246.2,360.4-385.2,445.1-435.2"/>
			<defs>
			<path id="SVGID_5_" d="M187,470.6c-6,18.6-11.5,32.1-21.8,44.3c-10.2,12.3-23,21.8-38.4,28.4c-4.6,0-8.5-0.7-11.9-2.2
				c-3.3-1.5-6.5-3.3-9.4-5.6c-2.9-2.3-5.8-4.5-8.8-6.6c-2.9-2.1-6.2-3.5-10-4.4c0-5.8-1.2-11.3-3.4-16.6c-2.3-5.2-4.6-10-6.9-14.4
				c-2.3-4.4-4-8.6-5-12.8c-1-4.2,0.1-8.3,3.4-12.5c-4.6-3.8-9-6.9-13.1-9.4c2.9-2.9,4.3-5.6,4.1-8.1c-0.2-2.5-0.9-5-2.2-7.5
				s-2.2-5.1-2.8-7.8c-0.6-2.7,0.1-5.7,2.2-9.1c1.7-0.4,2.4-1.2,2.2-2.5c-0.2-1.2,0.3-2.3,1.6-3.1c0.4-1.7,0.7-2.9,0.9-3.8
				c0.2-0.8-0.5-1.9-2.2-3.1c-0.8-2.9-0.2-4.8,1.9-5.6c2.1-0.8,4.2-1.7,6.2-2.5c2.1-25,6.3-47.8,12.8-68.4
				c6.5-20.6,13.5-40.7,21.2-60.3c7.7-19.6,15.4-39.3,23.1-59.1c7.7-19.8,14.1-41.3,19.1-64.7c5.4-5.4,9.9-11.9,13.4-19.4
				c3.5-7.5,7.1-15.1,10.6-22.8c3.5-7.7,7.7-15.1,12.5-22.2c4.8-7.1,11.3-12.9,19.7-17.5c3.8,0.4,7.2,1.2,10.3,2.2
				c3.1,1,6.1,2.2,9.1,3.4c2.9,1.2,6,2.3,9.4,3.1c3.3,0.8,6.9,1.2,10.6,1.2c1.7,2.1,3.1,4.5,4.4,7.2c1.2,2.7,2.9,5.1,5,7.2l11.2-1.9
				c5.4,4.6,10.2,10.3,14.4,17.2c4.2,6.9,7.1,14,8.8,21.2c1.7,7.3,1.5,14.4-0.6,21.2c-2.1,6.9-6.9,12.2-14.4,15.9
				c0.4,2.5,0.4,4.4,0,5.6c-0.4,1.2-0.9,2.4-1.6,3.4c-0.6,1-0.9,2.1-0.9,3.1c0,1,0.8,2.4,2.5,4.1c-4.6,3.8-8.8,8.4-12.5,14.1
				s-6.9,11.6-9.4,17.8s-4.5,12.5-5.9,18.8c-1.5,6.2-2.4,12.1-2.8,17.5l-11.6,48.4l1.4,6.1l-12.4,19.2l-2.4,16.1l-1.8,30.8l-8,14.4
				l-12.6,48.9L187,470.6z"/>
		</defs>
		<clipPath id="SVGID_6_">
			<use xlink:href="#SVGID_5_"  overflow="visible"/>
		</clipPath>
		<path class="line1" stroke-linecap="round" clip-path="url(#SVGID_6_)" fill="none" stroke="#009EE0" stroke-width="150" stroke-miterlimit="10" d="M273.5,64.4
			c0,0-156,316.5-181.3,482.4"/>
	</svg>